HIERARCHY
ROOT Hips
{
	OFFSET 0.000000 0.000000 0.000000
	CHANNELS 6 Xposition Yposition Zposition Zrotation Yrotation Xrotation 
	JOINT LHipJoint
	{
		OFFSET 0.000000 0.000000 0.000000
		CHANNELS 3 Zrotation Yrotation Xrotation
		JOINT LeftUpLeg
		{
			OFFSET 1.363060 -1.794630 0.839290
			CHANNELS 3 Zrotation Yrotation Xrotation
			JOINT LeftLeg
			{
				OFFSET 2.448110 -6.726130 0.000000
				CHANNELS 3 Zrotation Yrotation Xrotation
				JOINT LeftFoot
				{
					OFFSET 2.562200 -7.039590 0.000000
					CHANNELS 3 Zrotation Yrotation Xrotation
					JOINT LeftToeBase
					{
						OFFSET 0.157640 -0.433110 2.322550
						CHANNELS 3 Zrotation Yrotation Xrotation
						End Site
						{
							OFFSET 0.000000 0.000000 0.000000
						}
					}
				}
			}
		}
	}
	JOINT RHipJoint
	{
		OFFSET 0.000000 0.000000 0.000000
		CHANNELS 3 Zrotation Yrotation Xrotation
		JOINT RightUpLeg
		{
			OFFSET -1.305520 -1.794630 0.839290
			CHANNELS 3 Zrotation Yrotation Xrotation
			JOINT RightLeg
			{
				OFFSET -2.542530 -6.985550 0.000000
				CHANNELS 3 Zrotation Yrotation Xrotation
				JOINT RightFoot
				{
					OFFSET -2.568260 -7.056230 0.000000
					CHANNELS 3 Zrotation Yrotation Xrotation
					JOINT RightToeBase
					{
						OFFSET -0.164730 -0.452590 2.363150
						CHANNELS 3 Zrotation Yrotation Xrotation
						End Site
						{
							OFFSET 0.000000 0.000000 0.000000
						}
					}
				}
			}
		}
	}
	JOINT LowerBack
	{
		OFFSET 0.000000 0.000000 0.000000
		CHANNELS 3 Zrotation Yrotation Xrotation
		JOINT Spine
		{
			OFFSET 0.028270 2.035590 -0.193380
			CHANNELS 3 Zrotation Yrotation Xrotation
			JOINT Spine1
			{
				OFFSET 0.056720 2.048850 -0.042750
				CHANNELS 3 Zrotation Yrotation Xrotation
				JOINT Neck
				{
					OFFSET 0.000000 0.000000 0.000000
					CHANNELS 3 Zrotation Yrotation Xrotation
					JOINT Neck1
					{
						OFFSET -0.054170 1.746240 0.172020
						CHANNELS 3 Zrotation Yrotation Xrotation
						JOINT Head
						{
							OFFSET 0.104070 1.761360 -0.123970
							CHANNELS 3 Zrotation Yrotation Xrotation
							End Site
							{
								OFFSET 0.000000 0.000000 0.000000
							}
						}
					}
				}
				JOINT LeftShoulder
				{
					OFFSET 0.000000 0.000000 0.000000
					CHANNELS 3 Zrotation Yrotation Xrotation
					JOINT LeftArm
					{
						OFFSET 3.362410 1.200890 -0.311210
						CHANNELS 3 Zrotation Yrotation Xrotation
						JOINT LeftForeArm
						{
							OFFSET 4.983000 -0.000000 -0.000000
							CHANNELS 3 Zrotation Yrotation Xrotation
							JOINT LeftHand
							{
								OFFSET 3.483560 -0.000000 -0.000000
								CHANNELS 3 Zrotation Yrotation Xrotation
								JOINT LeftFingerBase
								{
									OFFSET 0.000000 0.000000 0.000000
									CHANNELS 3 Zrotation Yrotation Xrotation
									JOINT LeftHandIndex1
									{
										OFFSET 0.715260 -0.000000 -0.000000
										CHANNELS 3 Zrotation Yrotation Xrotation
										End Site
										{
											OFFSET 0.000000 0.000000 0.000000
										}
									}
								}
								JOINT LThumb
								{
									OFFSET 0.000000 0.000000 0.000000
									CHANNELS 3 Zrotation Yrotation Xrotation
									End Site
									{
										OFFSET 0.000000 0.000000 0.000000
									}
								}
							}
						}
					}
				}
				JOINT RightShoulder
				{
					OFFSET 0.000000 0.000000 0.000000
					CHANNELS 3 Zrotation Yrotation Xrotation
					JOINT RightArm
					{
						OFFSET -3.136600 1.374050 -0.404650
						CHANNELS 3 Zrotation Yrotation Xrotation
						JOINT RightForeArm
						{
							OFFSET -5.241900 -0.000000 -0.000000
							CHANNELS 3 Zrotation Yrotation Xrotation
							JOINT RightHand
							{
								OFFSET -3.444170 -0.000000 -0.000000
								CHANNELS 3 Zrotation Yrotation Xrotation
								JOINT RightFingerBase
								{
									OFFSET 0.000000 0.000000 0.000000
									CHANNELS 3 Zrotation Yrotation Xrotation
									JOINT RightHandIndex1
									{
										OFFSET -0.622530 -0.000000 -0.000000
										CHANNELS 3 Zrotation Yrotation Xrotation
										End Site
										{
											OFFSET 0.000000 0.000000 0.000000
										}
									}
								}
								JOINT RThumb
								{
									OFFSET 0.000000 0.000000 0.000000
									CHANNELS 3 Zrotation Yrotation Xrotation
									End Site
									{
										OFFSET 0.000000 0.000000 0.000000
									}
								}
							}
						}
					}
				}
			}
		}
	}
}
MOTION
Frames: 12
Frame Time: 0.008333
4.066796 15.935111 0.173917 -51.767266 83.652237 -28.353166 -9.981162 -0.821772 -3.133884 -10.954594 5.252515 -45.567750 -1.669497 3.448043 58.161259 2.689811 8.700475 -30.048706 -3.949300 0.000000 -26.194900 10.282066 0.856487 -4.145495 15.378169 -5.106008 -52.240866 -1.204377 -5.999662 77.939559 -2.127165 -9.382831 -14.828093 0.984700 -0.000000 -15.517800 -0.249007 -1.401248 9.466361 -0.737369 -1.148250 -0.979048 -5.804179 -1.096531 0.012697 7.546709 -7.498951 -6.715619 -2.711706 -0.189197 -0.102367 0.000000 0.000000 0.000000 4.824298 7.256956 0.827761 -67.529822 -8.453375 3.516183 -0.358637 -80.459893 -0.019410 2.507947 7.053662 0.155294 -0.086986 0.241829 0.000000 0.000000 0.000000 0.000000 0.000000 0.000000 0.000000 9.269385 -3.826508 2.205214 73.488592 -4.599525 6.922691 2.042609 42.956382 0.002920 -0.739605 2.743336 -0.019864 0.074176 -0.131892 -0.000000 0.000000 0.000000 0.000000 0.000000 0.000000 0.000000 
4.203437 15.966951 0.181753 -52.074762 83.648676 -28.417643 -10.018729 -0.804633 -3.219860 -10.897683 5.633875 -45.003394 -1.734680 3.400976 57.554134 2.651795 8.519865 -29.928274 -3.871600 0.000000 -27.018000 10.099372 0.945079 -3.958578 15.632588 -4.479409 -53.528544 -1.038676 -5.976178 76.846114 -2.246445 -9.686045 -15.597361 1.137100 -0.000000 -14.099000 0.030792 -1.510115 9.400499 -0.672957 -1.265787 -0.974513 -5.789423 -1.212019 0.063518 7.535727 -7.741750 -6.769482 -2.717724 -0.189236 -0.116174 0.000000 0.000000 0.000000 5.072086 7.207974 0.747637 -66.850579 -9.072319 3.450438 -0.275065 -82.053839 -0.018541 2.307673 7.041316 0.142691 -0.084004 0.250510 0.000000 0.000000 0.000000 0.000000 0.000000 0.000000 0.000000 9.270874 -4.148157 2.276273 73.189682 -5.319873 6.520795 2.073169 42.548942 0.002882 -0.767576 2.656510 -0.019968 0.076002 -0.127318 -0.000000 0.000000 0.000000 0.000000 0.000000 0.000000 0.000000 
4.340815 15.998002 0.190419 -52.334328 83.643153 -28.417174 -10.055289 -0.786173 -3.304473 -10.839596 6.021355 -44.456318 -1.801241 3.353695 56.933352 2.609428 8.318011 -29.787116 -3.783300 0.000000 -27.931800 9.913569 1.024103 -3.762182 15.872318 -3.851542 -54.797921 -0.867960 -5.946680 75.657743 -2.358999 -9.931458 -16.247010 1.268100 -0.000000 -13.024700 0.316123 -1.614613 9.324974 -0.607587 -1.379751 -0.971601 -5.773930 -1.324289 0.117275 7.525564 -8.006817 -6.837331 -2.721172 -0.188934 -0.133842 0.000000 0.000000 0.000000 5.313023 7.180201 0.672992 -66.144765 -9.666163 3.332356 -0.192779 -83.608692 -0.017849 2.146579 7.039950 0.132885 -0.081457 0.258864 0.000000 0.000000 0.000000 0.000000 0.000000 0.000000 0.000000 9.264776 -4.485926 2.341681 72.877784 -6.032148 6.118216 2.098972 42.253880 0.002856 -0.795383 2.588768 -0.020170 0.077692 -0.123361 -0.000000 0.000000 0.000000 0.000000 0.000000 0.000000 0.000000 
4.479094 16.028028 0.200076 -52.549939 83.641490 -28.359241 -10.090395 -0.764981 -3.386946 -10.782471 6.407090 -43.922490 -1.868315 3.306427 56.304121 2.561849 8.093173 -29.619370 -3.683000 -0.000000 -28.910100 9.727227 1.092529 -3.558873 16.095084 -3.235722 -56.040401 -0.691670 -5.911267 74.367186 -2.455451 -10.083800 -16.747266 1.364200 -0.000000 -12.403800 0.603539 -1.715809 9.241293 -0.541805 -1.491139 -0.970339 -5.757219 -1.434375 0.172609 7.517162 -8.290851 -6.917477 -2.721817 -0.188293 -0.154898 0.000000 0.000000 0.000000 5.551271 7.167522 0.603840 -65.419087 -10.225673 3.158741 -0.112402 -85.120011 -0.017331 2.021400 7.049530 0.125279 -0.079305 0.266860 0.000000 0.000000 0.000000 0.000000 0.000000 0.000000 0.000000 9.251064 -4.836649 2.401713 72.558613 -6.740517 5.709971 2.120510 42.071463 0.002873 -0.807947 2.541249 -0.020072 0.079128 -0.119980 -0.000000 0.000000 0.000000 0.000000 0.000000 0.000000 0.000000 
4.618380 16.056781 0.210894 -52.721271 83.649597 -28.246408 -10.123557 -0.739443 -3.466468 -10.729355 6.783016 -43.397859 -1.935077 3.259424 55.671630 2.508574 7.845024 -29.420590 -3.570099 0.000000 -29.924100 9.542943 1.149965 -3.351350 16.299171 -2.645505 -57.249505 -0.509328 -5.870240 72.970635 -2.528696 -10.121376 -17.077504 1.415201 -0.000000 -12.307500 0.888537 -1.814958 9.150951 -0.476336 -1.601103 -0.970414 -5.738750 -1.543412 0.229418 7.511393 -8.594969 -7.009709 -2.719116 -0.187271 -0.179293 0.000000 0.000000 0.000000 5.789342 7.167029 0.539857 -64.679532 -10.745329 2.929995 -0.034601 -86.583376 -0.016972 1.927101 7.070308 0.119869 -0.077486 0.274449 0.000000 0.000000 0.000000 0.000000 0.000000 0.000000 0.000000 9.229260 -5.201964 2.456557 72.236423 -7.443040 5.296898 2.138281 41.997062 0.002949 -0.795721 2.513906 -0.019573 0.080255 -0.117123 -0.000000 0.000000 0.000000 0.000000 0.000000 0.000000 0.000000 
4.758919 16.084105 0.223057 -52.822521 83.674385 -28.055444 -10.154011 -0.707298 -3.542214 -10.686947 7.140590 -42.878032 -2.001154 3.212896 55.039619 2.449975 7.575796 -29.190903 -3.446000 -0.000000 -30.917900 9.363384 1.197254 -3.142530 16.481850 -2.095652 -58.422536 -0.320468 -5.824306 71.470537 -2.574328 -10.034492 -17.234066 1.417000 -0.000000 -12.719300 1.164863 -1.913867 9.055424 -0.412115 -1.711263 -0.969840 -5.717801 -1.652756 0.293889 7.510057 -8.943593 -7.121276 -2.710981 -0.185610 -0.209061 0.000000 0.000000 0.000000 6.021529 7.191671 0.479198 -63.925103 -11.238581 2.657468 0.039881 -87.993216 -0.016772 1.860863 7.105264 0.116257 -0.076017 0.281513 0.000000 0.000000 0.000000 0.000000 0.000000 0.000000 0.000000 9.197885 -5.609174 2.505270 71.906383 -8.105103 4.925788 2.153255 42.006024 0.003074 -0.771704 2.511817 -0.019072 0.081274 -0.114712 -0.000000 0.000000 0.000000 0.000000 0.000000 0.000000 0.000000 
4.900522 16.109806 0.236498 -52.890718 83.717985 -27.826446 -10.182350 -0.669200 -3.613575 -10.652232 7.476210 -42.362779 -2.064927 3.166959 54.414073 2.385969 7.289069 -28.922642 -3.311000 0.000000 -31.951200 9.189533 1.233163 -2.933072 16.648438 -1.589461 -59.556519 -0.125506 -5.773495 69.866893 -2.592664 -9.838781 -17.207597 1.369100 0.000000 -13.710200 1.433807 -2.011510 8.954422 -0.349070 -1.820747 -0.973582 -5.694347 -1.762234 0.348058 7.510834 -9.270413 -7.230907 -2.701894 -0.183921 -0.238238 0.000000 0.000000 0.000000 6.269540 7.195039 0.425820 -63.181892 -11.649577 2.317185 0.110955 -89.353525 -0.016605 1.807094 7.141257 0.113444 -0.074482 0.288312 0.000000 0.000000 0.000000 0.000000 0.000000 0.000000 0.000000 9.161285 -5.985923 2.551552 71.595522 -8.813239 4.470736 2.163775 42.143180 0.003287 -0.685482 2.512560 -0.017072 0.081601 -0.112765 -0.000000 0.000000 0.000000 0.000000 0.000000 0.000000 0.000000 
5.043544 16.133834 0.251368 -52.854445 83.786195 -27.489384 -10.207391 -0.622118 -3.680248 -10.636467 7.783336 -41.845313 -2.127349 3.121505 53.793354 2.318707 6.991424 -28.628478 -3.170200 0.000000 -32.914000 9.023793 1.260540 -2.726163 16.795966 -1.141452 -60.655644 0.076389 -5.719296 68.176189 -2.585334 -9.544038 -17.037762 1.282300 -0.000000 -15.046600 1.686541 -2.110220 8.850129 -0.288673 -1.931533 -0.977403 -5.668266 -1.873219 0.405929 7.516714 -9.626866 -7.355149 -2.688401 -0.181715 -0.271510 0.000000 0.000000 0.000000 6.512737 7.212278 0.376786 -62.433607 -12.017822 1.936435 -179.821976 -89.339971 179.983476 1.768867 7.188207 0.111728 -0.073110 0.294567 0.000000 0.000000 0.000000 0.000000 0.000000 0.000000 0.000000 9.119108 -6.389406 2.592866 71.285254 -9.493576 4.035334 2.171087 42.360604 0.003538 -0.581327 2.526546 -0.014769 0.081762 -0.111177 -0.000000 0.000000 0.000000 0.000000 0.000000 0.000000 0.000000 
5.187988 16.156130 0.267539 -52.714787 83.878323 -27.046239 -10.229409 -0.566651 -3.742176 -10.638908 8.061053 -41.325479 -2.187953 3.076413 53.178515 2.249511 6.689656 -28.311067 -3.026800 -0.000000 -33.836400 8.866481 1.279524 -2.522218 16.930923 -0.751353 -61.722715 0.285343 -5.662199 66.410592 -2.557929 -9.179127 -16.755583 1.168299 0.000000 -16.624400 1.924633 -2.209716 8.742885 -0.230456 -2.043323 -0.981889 -5.639132 -1.985509 0.465300 7.526314 -10.005531 -7.491554 -2.670777 -0.179035 -0.308211 0.000000 0.000000 0.000000 6.751727 7.236285 0.332509 -61.689398 -12.334903 1.515961 -179.759147 -88.088898 179.983536 1.737550 7.240290 0.110512 -0.071732 0.300354 0.000000 0.000000 0.000000 0.000000 0.000000 0.000000 0.000000 9.070146 -6.811532 2.630232 70.979816 -10.150534 3.609753 2.175067 42.653246 0.003817 -0.461723 2.548499 -0.012065 0.081774 -0.109919 -0.000000 0.000000 0.000000 0.000000 0.000000 0.000000 0.000000 
5.333894 16.176638 0.284840 -52.455442 83.992170 -26.481352 -10.248591 -0.503159 -3.799550 -10.659310 8.309843 -40.800707 -2.246924 3.031330 52.567698 2.180249 6.391339 -27.978919 -2.884800 0.000000 -34.714300 8.717657 1.290626 -2.321523 17.059635 -0.417010 -62.760515 0.502124 -5.602626 64.586621 -2.517199 -8.771210 -16.410960 1.041800 -0.000001 -18.263500 2.148754 -2.309548 8.633193 -0.174337 -2.155597 -0.987571 -5.607410 -2.098641 0.523997 7.538739 -10.396530 -7.637526 -2.650015 -0.175976 -0.347664 0.000000 0.000000 0.000000 6.982705 7.263227 0.294077 -60.952177 -12.595823 1.059893 -179.700476 -86.891415 179.983606 1.708578 7.295219 0.109394 -0.070309 0.305687 -0.000000 0.000000 0.000000 0.000000 0.000000 0.000000 0.000000 9.016525 -7.241783 2.664313 70.681023 -10.789736 3.183909 2.175299 43.018239 0.004106 -0.331842 2.571846 -0.009164 0.081662 -0.108968 -0.000000 0.000000 0.000000 0.000000 0.000000 0.000000 0.000000 
5.481325 16.195366 0.303099 -52.061000 84.122616 -25.779176 -10.265345 -0.432715 -3.852913 -10.695227 8.532428 -40.269605 -2.304536 2.985902 51.958295 2.112695 6.103618 -27.640820 -2.748000 0.000000 -35.558200 8.576707 1.293999 -2.123444 17.189355 -0.130572 -63.770434 0.727655 -5.540368 62.720314 -2.470362 -8.345920 -16.056673 0.916600 0.000001 -19.821300 2.362054 -2.408944 8.521368 -0.119612 -2.267527 -0.994246 -5.573248 -2.211749 0.582734 7.552517 -10.801088 -7.793794 -2.626050 -0.172513 -0.390123 0.000000 0.000000 0.000000 7.198936 7.295846 0.261801 -60.223206 -12.803678 0.576100 -179.645851 -85.747872 179.983707 1.678557 7.350799 0.108176 -0.068832 0.310571 0.000000 0.000000 0.000000 0.000000 0.000000 0.000000 0.000000 8.957241 -7.681494 2.695406 70.386818 -11.401060 2.770815 2.171918 43.441678 0.004384 -0.205852 2.595115 -0.006259 0.081560 -0.108295 -0.000000 0.000000 0.000000 0.000000 0.000000 0.000000 0.000000 
5.630281 16.212305 0.322072 -51.521707 84.262537 -24.930270 -10.280196 -0.356853 -3.902985 -10.741998 8.732812 -39.730474 -2.361167 2.939714 51.347154 2.048466 5.832574 -27.306798 -2.619800 -0.000001 -36.373000 8.442674 1.289355 -1.926853 17.327270 0.119373 -64.749540 0.963290 -5.474385 60.824814 -2.423747 -7.921748 -15.745140 0.803800 -0.000000 -21.187000 2.568678 -2.506632 8.407587 -0.065764 -2.377828 -1.003234 -5.538079 -2.323682 0.636617 7.566516 -11.196596 -7.954204 -2.601315 -0.168902 -0.433925 0.000000 0.000000 0.000000 7.397180 7.326242 0.237926 -59.504646 -12.948657 0.067707 -179.594739 -84.654388 179.983850 1.645248 7.404855 0.106755 -0.067340 0.315031 -0.000000 0.000000 0.000000 0.000000 0.000000 0.000000 0.000000 8.897471 -8.106101 2.724462 70.101925 -12.005613 2.340207 2.164366 43.930041 0.004643 -0.079041 2.608526 -0.003255 0.081377 -0.107881 -0.000000 0.000000 0.000000 0.000000 0.000000 0.000000 0.000000 
